<mxfile host="app.diagrams.net" modified="2021-03-18T00:36:07.809Z" agent="5.0 (Macintosh; Intel Mac OS X 10_15_6) AppleWebKit/605.1.15 (KHTML, like Gecko) Version/14.0.3 Safari/605.1.15" etag="smZRBE49YBY8Hky2bo7V" version="14.4.4" type="github">
  <diagram id="unFqOEDdfXkWgbKuixIj" name="Page-1">
    <mxGraphModel dx="786" dy="535" grid="1" gridSize="10" guides="1" tooltips="1" connect="1" arrows="1" fold="1" page="1" pageScale="1" pageWidth="827" pageHeight="1169" math="0" shadow="0">
      <root>
        <mxCell id="0" />
        <mxCell id="1" parent="0" />
        <mxCell id="J224BRCx1Zql7-7MCpVJ-2" value="Internet" style="ellipse;shape=cloud;whiteSpace=wrap;html=1;" vertex="1" parent="1">
          <mxGeometry x="180" y="80" width="120" height="80" as="geometry" />
        </mxCell>
        <mxCell id="J224BRCx1Zql7-7MCpVJ-3" value="" style="endArrow=classic;startArrow=classic;html=1;exitX=0;exitY=0.5;exitDx=0;exitDy=0;entryX=0.5;entryY=1;entryDx=0;entryDy=0;entryPerimeter=0;" edge="1" parent="1" target="J224BRCx1Zql7-7MCpVJ-2">
          <mxGeometry width="50" height="50" relative="1" as="geometry">
            <mxPoint x="240" y="240" as="sourcePoint" />
            <mxPoint x="240" y="190" as="targetPoint" />
          </mxGeometry>
        </mxCell>
        <mxCell id="J224BRCx1Zql7-7MCpVJ-4" value="Internet&lt;br&gt;으로부터&lt;br&gt;rpm 파일&lt;br&gt;다운로드" style="rounded=0;whiteSpace=wrap;html=1;" vertex="1" parent="1">
          <mxGeometry x="193" y="240" width="95" height="120" as="geometry" />
        </mxCell>
        <mxCell id="J224BRCx1Zql7-7MCpVJ-5" value="rpm 파일을 이용한 &lt;br&gt;docker-ce 설치" style="rounded=0;whiteSpace=wrap;html=1;" vertex="1" parent="1">
          <mxGeometry x="390" y="240" width="100" height="120" as="geometry" />
        </mxCell>
        <mxCell id="J224BRCx1Zql7-7MCpVJ-6" value="" style="endArrow=classic;html=1;exitX=1;exitY=0.5;exitDx=0;exitDy=0;entryX=0;entryY=0.5;entryDx=0;entryDy=0;" edge="1" parent="1" source="J224BRCx1Zql7-7MCpVJ-4" target="J224BRCx1Zql7-7MCpVJ-5">
          <mxGeometry width="50" height="50" relative="1" as="geometry">
            <mxPoint x="380" y="300" as="sourcePoint" />
            <mxPoint x="430" y="250" as="targetPoint" />
          </mxGeometry>
        </mxCell>
        <mxCell id="J224BRCx1Zql7-7MCpVJ-7" value="" style="rounded=1;whiteSpace=wrap;html=1;fillColor=none;dashed=1;" vertex="1" parent="1">
          <mxGeometry x="350" y="200" width="180" height="200" as="geometry" />
        </mxCell>
      </root>
    </mxGraphModel>
  </diagram>
</mxfile>
